# xmcd CD database file
#
# Track frame offsets:
#	150
#	25902
#	39827
#	63391
#	96071
#	116802
#	140403
#	160779
#	187113
#
# Disc length: 2635 seconds
#
# Revision: 0
# Processed by: cddbd v1.5.2PL0 Copyright (c) Steve Scherf et al.
# Submitted via: CDex 1.51
#
DISCID=740a4909
DTITLE=Irena and Vojtech Havlovi - Tulaci V Zrcadlovem Sale
DYEAR=2010
DGENRE=New Age
TTITLE0=Odtekam
TTITLE1=Jaro Tve Ruce
TTITLE2=Krehka Tajemna Samicka
TTITLE3=Sedeli Jsme Na Namesti
TTITLE4=Tulaci V Zrcadlovem Sale
TTITLE5=Po Dni Na Porazkove Lince
TTITLE6=Rovzpomen Se
TTITLE7=Tma Zmizela Ve Tme
TTITLE8=Ta Chodba (bonus)
EXTD=YEAR: 2010
EXTT0=
EXTT1=
EXTT2=
EXTT3=
EXTT4=
EXTT5=
EXTT6=
EXTT7=
EXTT8=
PLAYORDER=
